<svg width="30" height="31" viewBox="0 0 30 31" fill="none" xmlns="http://www.w3.org/2000/svg">
<ellipse cx="15" cy="15.2576" rx="15" ry="15.0071" fill="#941029"/>
<ellipse cx="15" cy="15.2577" rx="11" ry="11.0052" fill="white"/>
<path d="M20.9992 9.64449C21.0101 9.7993 20.9121 9.94133 20.7636 9.985C18.0114 10.801 16.0892 13.3817 16.0892 16.2614V17.1925H18.1196C18.2528 17.1925 18.3732 17.2732 18.4242 17.3967C18.4752 17.5202 18.4471 17.6627 18.3525 17.7571L13.9578 22.1678C13.8343 22.2917 13.6154 22.2917 13.4914 22.1678L9.09664 17.7575C9.00257 17.6631 8.974 17.5207 9.02499 17.3972C9.07598 17.2737 9.19642 17.193 9.32961 17.193H11.3639C11.4378 14.9069 12.458 12.7549 14.1886 11.2535C15.6848 9.95544 17.5846 9.25458 19.5354 9.25458C19.9284 9.25458 20.3236 9.28281 20.7178 9.34059C20.8712 9.36309 20.9882 9.48967 20.9992 9.64449Z" fill="#941029"/>
</svg>
