<svg width="30" height="31" viewBox="0 0 30 31" fill="none" xmlns="http://www.w3.org/2000/svg">
<circle cx="15" cy="15.625" r="15" fill="#4C4C4C"/>
<circle cx="15" cy="15.625" r="11" fill="white"/>
<path d="M20 11.125V9.625H11V11.125H13.8636C14.9289 11.125 15.8281 11.7535 16.1668 12.625H11V14.125H16.1668C15.9988 14.5624 15.6873 14.9415 15.2749 15.21C14.8625 15.4786 14.3695 15.6236 13.8636 15.625H11V17.4355L15.5704 21.625H17.8842L12.9751 17.125H13.8636C14.8062 17.1239 15.7194 16.8249 16.4494 16.2783C17.1794 15.7318 17.6815 14.9713 17.8711 14.125H20V12.625H17.8711C17.7457 12.0791 17.4872 11.5664 17.1151 11.125H20Z" fill="#4C4C4C"/>
</svg>
