<svg width="30" height="30" viewBox="0 0 30 30" fill="none" xmlns="http://www.w3.org/2000/svg">
<circle cx="15" cy="15" r="15" fill="#4C4C4C"/>
<circle cx="15" cy="15" r="11" fill="white"/>
<path d="M9.00084 9.38972C8.98985 9.54446 9.08787 9.68642 9.23645 9.73007C11.9886 10.5457 13.9108 13.1251 13.9108 16.0035L13.9108 16.9342L11.8804 16.9342C11.7472 16.9342 11.6268 17.0149 11.5758 17.1383C11.5248 17.2617 11.5529 17.4041 11.6475 17.4985L16.0422 21.9071C16.1657 22.031 16.3846 22.031 16.5086 21.9071L20.9034 17.4989C20.9974 17.4046 21.026 17.2622 20.975 17.1387C20.924 17.0153 20.8036 16.9346 20.6704 16.9346L18.6361 16.9346C18.5622 14.6496 17.542 12.4987 15.8114 10.998C14.3152 9.70053 12.4154 9 10.4646 9C10.0716 9 9.67645 9.02822 9.28216 9.08597C9.12875 9.10845 9.01183 9.23498 9.00084 9.38972Z" fill="#4C4C4C"/>
</svg>
