<svg width="30" height="30" viewBox="0 0 30 30" fill="none" xmlns="http://www.w3.org/2000/svg">
<circle cx="15" cy="15" r="15" fill="#E8B001"/>
<circle cx="15" cy="15" r="11" fill="white"/>
<path d="M20.9992 21.6103C21.0101 21.4555 20.9121 21.3136 20.7636 21.2699C18.0114 20.4543 16.0892 17.8749 16.0892 14.9965V14.0658H18.1196C18.2528 14.0658 18.3732 13.9851 18.4242 13.8617C18.4752 13.7383 18.4471 13.5959 18.3525 13.5015L13.9578 9.09291C13.8343 8.96903 13.6154 8.96903 13.4914 9.09291L9.09664 13.5011C9.00257 13.5954 8.974 13.7378 9.02499 13.8613C9.07598 13.9847 9.19642 14.0654 9.32961 14.0654H11.3639C11.4378 16.3504 12.458 18.5013 14.1886 20.002C15.6848 21.2995 17.5846 22 19.5354 22C19.9284 22 20.3236 21.9718 20.7178 21.914C20.8712 21.8915 20.9882 21.765 20.9992 21.6103Z" fill="#E8B001"/>
</svg>
