<svg width="30" height="30" viewBox="0 0 30 30" fill="none" xmlns="http://www.w3.org/2000/svg">
<circle cx="15" cy="15" r="15" fill="#13BF24"/>
<circle cx="15" cy="15" r="11" fill="white"/>
<path d="M20 10.5V9H11V10.5H13.8636C14.9289 10.5 15.8281 11.1285 16.1668 12H11V13.5H16.1668C15.9988 13.9374 15.6873 14.3165 15.2749 14.585C14.8625 14.8536 14.3695 14.9986 13.8636 15H11V16.8105L15.5704 21H17.8842L12.9751 16.5H13.8636C14.8062 16.4989 15.7194 16.1999 16.4494 15.6533C17.1794 15.1068 17.6815 14.3463 17.8711 13.5H20V12H17.8711C17.7457 11.4541 17.4872 10.9414 17.1151 10.5H20Z" fill="#13BF24"/>
</svg>
