<svg width="25" height="25" viewBox="0 0 25 25" fill="none" xmlns="http://www.w3.org/2000/svg">
<path d="M24.5801 11.5073L13.3634 1.28669C12.8711 0.838013 12.1287 0.838062 11.6365 1.28664L0.419825 11.5073C0.0254415 11.8667 -0.104831 12.4204 0.0878436 12.9179C0.280568 13.4154 0.749804 13.7368 1.28335 13.7368H3.07485V23.9771C3.07485 24.3831 3.40404 24.7123 3.81005 24.7123H9.95817C10.3642 24.7123 10.6934 24.3831 10.6934 23.9771V17.7595H14.3067V23.9771C14.3067 24.3831 14.6359 24.7123 15.0419 24.7123H21.1898C21.5958 24.7123 21.925 24.3832 21.925 23.9771V13.7368H23.7168C24.2503 13.7368 24.7196 13.4154 24.9123 12.9179C25.1047 12.4203 24.9745 11.8667 24.5801 11.5073Z" fill="white"/>
<path d="M21.7328 2.41748H16.7954L22.468 7.57547V3.15263C22.468 2.74663 22.1389 2.41748 21.7328 2.41748Z" fill="white"/>
</svg>
