<svg width="30" height="31" viewBox="0 0 30 31" fill="none" xmlns="http://www.w3.org/2000/svg">
<circle cx="15" cy="15.625" r="15" fill="#CA73FF"/>
<circle cx="15" cy="15.625" r="11" fill="white"/>
<g clip-path="url(#clip0_185_774)">
<path d="M18.5001 9.625H11.5376C10.9706 9.625 10.4727 10.0915 10.4727 10.6437V20.9434C10.4727 21.1282 10.5241 21.2822 10.607 21.4012C10.7062 21.5435 10.8658 21.6251 11.037 21.625C11.1988 21.625 11.3712 21.553 11.5303 21.417L14.6453 18.7722C14.7415 18.69 14.8797 18.643 15.0234 18.643C15.1671 18.643 15.305 18.69 15.4015 18.7724L18.5061 21.4166C18.6658 21.553 18.8262 21.6251 18.9878 21.6251C19.261 21.6251 19.5273 21.4143 19.5273 20.9434V10.6437C19.5273 10.0915 19.0672 9.625 18.5001 9.625Z" fill="#CA73FF"/>
</g>
<defs>
<clipPath id="clip0_185_774">
<rect width="12" height="12" fill="white" transform="translate(9 9.625)"/>
</clipPath>
</defs>
</svg>
