<svg width="22" height="25" viewBox="0 0 22 25" fill="none" xmlns="http://www.w3.org/2000/svg">
<path d="M18.052 13.4362V11.2069H16.4823V13.7931C16.4823 14.0217 16.565 14.241 16.7122 14.4026L18.8369 16.7362V18.1034H1.56974V16.7362L3.69438 14.4026C3.84158 14.241 3.92431 14.0217 3.92435 13.7931V10.3448C3.92216 9.13344 4.21106 7.94288 4.76187 6.89338C5.31269 5.84388 6.1059 4.97262 7.06139 4.36759C8.01689 3.76257 9.10083 3.44521 10.2037 3.44757C11.3066 3.44993 12.3894 3.77192 13.3428 4.38103V2.45431C12.5957 2.09097 11.801 1.85938 10.9882 1.7681V0H9.41844V1.76724C7.4834 1.98356 5.69012 2.98027 4.38536 4.56464C3.0806 6.14901 2.35704 8.20848 2.35461 10.3448V13.4362L0.229967 15.7698C0.082765 15.9315 4.4453e-05 16.1507 0 16.3793V18.9655C0 19.1942 0.0826914 19.4134 0.229883 19.5751C0.377075 19.7368 0.57671 19.8276 0.78487 19.8276H6.27896V20.6897C6.27896 21.8328 6.69242 22.9292 7.42838 23.7375C8.16433 24.5459 9.16251 25 10.2033 25C11.2441 25 12.2423 24.5459 12.9782 23.7375C13.7142 22.9292 14.1277 21.8328 14.1277 20.6897V19.8276H19.6217C19.8299 19.8276 20.0295 19.7368 20.1767 19.5751C20.3239 19.4134 20.4066 19.1942 20.4066 18.9655V16.3793C20.4066 16.1507 20.3239 15.9315 20.1767 15.7698L18.052 13.4362ZM12.5579 20.6897C12.5579 21.3756 12.3098 22.0334 11.8683 22.5184C11.4267 23.0034 10.8278 23.2759 10.2033 23.2759C9.57883 23.2759 8.97992 23.0034 8.53835 22.5184C8.09677 22.0334 7.8487 21.3756 7.8487 20.6897V19.8276H12.5579V20.6897Z" fill="#CA1F3F"/>
<path d="M18.0521 9.48249C19.786 9.48249 21.1916 7.93864 21.1916 6.03421C21.1916 4.12978 19.786 2.58594 18.0521 2.58594C16.3182 2.58594 14.9126 4.12978 14.9126 6.03421C14.9126 7.93864 16.3182 9.48249 18.0521 9.48249Z" fill="#CA1F3F"/>
</svg>
