<svg width="30" height="31" viewBox="0 0 30 31" fill="none" xmlns="http://www.w3.org/2000/svg">
<circle cx="15" cy="15.375" r="15" fill="#941029"/>
<circle cx="15" cy="15.375" r="11" fill="white"/>
<path d="M9.00084 21.9853C8.98985 21.8305 9.08787 21.6886 9.23645 21.6449C11.9886 20.8293 13.9108 18.2499 13.9108 15.3715V14.4408H11.8804C11.7472 14.4408 11.6268 14.3601 11.5758 14.2367C11.5248 14.1133 11.5529 13.9709 11.6475 13.8765L16.0422 9.46791C16.1657 9.34403 16.3846 9.34403 16.5086 9.46791L20.9034 13.8761C20.9974 13.9704 21.026 14.1128 20.975 14.2363C20.924 14.3597 20.8036 14.4404 20.6704 14.4404H18.6361C18.5622 16.7254 17.542 18.8763 15.8114 20.377C14.3152 21.6745 12.4154 22.375 10.4646 22.375C10.0716 22.375 9.67645 22.3468 9.28216 22.289C9.12875 22.2665 9.01183 22.14 9.00084 21.9853Z" fill="#941029"/>
</svg>
