<svg width="30" height="30" viewBox="0 0 30 30" fill="none" xmlns="http://www.w3.org/2000/svg">
<circle cx="15" cy="15" r="15" fill="#3AC1FF"/>
<circle cx="15" cy="15" r="11" fill="white"/>
<g clip-path="url(#clip0_172_1253)">
<path d="M18.5001 9H11.5376C10.9706 9 10.4727 9.46649 10.4727 10.0187V20.3184C10.4727 20.5032 10.5241 20.6572 10.607 20.7762C10.7062 20.9185 10.8658 21.0001 11.037 21C11.1988 21 11.3712 20.928 11.5303 20.792L14.6453 18.1472C14.7415 18.065 14.8797 18.018 15.0234 18.018C15.1671 18.018 15.305 18.065 15.4015 18.1474L18.5061 20.7916C18.6658 20.928 18.8262 21.0001 18.9878 21.0001C19.261 21.0001 19.5273 20.7893 19.5273 20.3184V10.0187C19.5273 9.46649 19.0672 9 18.5001 9Z" fill="#3AC1FF"/>
</g>
<defs>
<clipPath id="clip0_172_1253">
<rect width="12" height="12" fill="white" transform="translate(9 9)"/>
</clipPath>
</defs>
</svg>
