<svg width="20" height="22" viewBox="0 0 20 22" fill="none" xmlns="http://www.w3.org/2000/svg">
<path d="M16.25 14.1094C15.015 14.1094 13.9266 14.7074 13.243 15.6169L7.33292 12.6379C7.43104 12.3087 7.5 11.9675 7.5 11.6074C7.5 11.1191 7.39829 10.6548 7.22258 10.2278L13.4078 6.56398C14.0961 7.35919 15.1079 7.875 16.25 7.875C18.3179 7.875 20 6.21916 20 4.18359C20 2.14803 18.3179 0.492188 16.25 0.492188C14.1821 0.492188 12.5 2.14803 12.5 4.18359C12.5 4.65269 12.5981 5.09767 12.7609 5.51078L6.55729 9.18537C5.86954 8.41378 4.87238 7.91602 3.75 7.91602C1.68212 7.91602 0 9.57186 0 11.6074C0 13.643 1.68212 15.2988 3.75 15.2988C5.00542 15.2988 6.11213 14.6832 6.79313 13.7482L12.6838 16.7175C12.5753 17.0623 12.5 17.4214 12.5 17.8008C12.5 19.8363 14.1821 21.4922 16.25 21.4922C18.3179 21.4922 20 19.8363 20 17.8008C20 15.7652 18.3179 14.1094 16.25 14.1094Z" fill="#CA1F3F"/>
</svg>
