<svg width="20" height="21" viewBox="0 0 20 21" fill="none" xmlns="http://www.w3.org/2000/svg">
<path d="M16.25 13.6172C15.015 13.6172 13.9266 14.2152 13.243 15.1247L7.33292 12.1457C7.43104 11.8165 7.5 11.4753 7.5 11.1152C7.5 10.6269 7.39829 10.1626 7.22258 9.73563L13.4078 6.07179C14.0961 6.867 15.1079 7.38281 16.25 7.38281C18.3179 7.38281 20 5.72697 20 3.69141C20 1.65584 18.3179 0 16.25 0C14.1821 0 12.5 1.65584 12.5 3.69141C12.5 4.1605 12.5981 4.60548 12.7609 5.01859L6.55729 8.69318C5.86954 7.92159 4.87238 7.42383 3.75 7.42383C1.68212 7.42383 0 9.07967 0 11.1152C0 13.1508 1.68212 14.8066 3.75 14.8066C5.00542 14.8066 6.11213 14.191 6.79313 13.256L12.6838 16.2253C12.5753 16.5701 12.5 16.9292 12.5 17.3086C12.5 19.3442 14.1821 21 16.25 21C18.3179 21 20 19.3442 20 17.3086C20 15.273 18.3179 13.6172 16.25 13.6172Z" fill="#CA1F3F"/>
</svg>
