<svg width="24" height="31" viewBox="0 0 24 31" fill="none" xmlns="http://www.w3.org/2000/svg">
<path fill-rule="evenodd" clip-rule="evenodd" d="M9 13.625C7.9 13.625 7 14.525 7 15.625C7 16.725 7.9 17.625 9 17.625C10.1 17.625 11 16.725 11 15.625C11 14.525 10.1 13.625 9 13.625ZM21 13.625C19.9 13.625 19 14.525 19 15.625C19 16.725 19.9 17.625 21 17.625C22.1 17.625 23 16.725 23 15.625C23 14.525 22.1 13.625 21 13.625ZM15 13.625C13.9 13.625 13 14.525 13 15.625C13 16.725 13.9 17.625 15 17.625C16.1 17.625 17 16.725 17 15.625C17 14.525 16.1 13.625 15 13.625Z" fill="white" fill-opacity="0.5"/>
</svg>
