<svg width="20" height="22" viewBox="0 0 20 22" fill="none" xmlns="http://www.w3.org/2000/svg">
<path d="M10.7241 1.26034C10.33 0.846551 9.66995 0.846551 9.27586 1.26034L8.83806 1.72003C8.47025 2.10624 8.47025 2.71314 8.83806 3.09934L13.4545 7.94666C14.0609 8.58332 13.6096 9.63631 12.7304 9.63631L1 9.63631C0.447715 9.63631 0 10.084 0 10.6363L0 11.3637C0 11.916 0.447715 12.3637 1 12.3637L12.7314 12.3637C13.6106 12.3637 14.0619 13.4168 13.4555 14.0534L8.83819 18.9007C8.47031 19.2869 8.47028 19.8938 8.83812 20.28L9.27586 20.7397C9.66995 21.1535 10.33 21.1534 10.7241 20.7397L19.3432 11.6897C19.711 11.3034 19.711 10.6966 19.3432 10.3103L10.7241 1.26034Z" fill="white"/>
<path d="M10.7241 1.26034C10.33 0.846551 9.66995 0.846551 9.27586 1.26034L8.83806 1.72003C8.47025 2.10624 8.47025 2.71314 8.83806 3.09934L13.4545 7.94666C14.0609 8.58332 13.6096 9.63631 12.7304 9.63631L1 9.63631C0.447715 9.63631 0 10.084 0 10.6363L0 11.3637C0 11.916 0.447715 12.3637 1 12.3637L12.7314 12.3637C13.6106 12.3637 14.0619 13.4168 13.4555 14.0534L8.83819 18.9007C8.47031 19.2869 8.47028 19.8938 8.83812 20.28L9.27586 20.7397C9.66995 21.1535 10.33 21.1534 10.7241 20.7397L19.3432 11.6897C19.711 11.3034 19.711 10.6966 19.3432 10.3103L10.7241 1.26034Z" stroke="white"/>
</svg>
